<svg xmlns="http://www.w3.org/2000/svg" version="1.1" xmlns:xlink="http://www.w3.org/1999/xlink" xmlns:svgjs="http://svgjs.dev/svgjs" width="1000" height="623" viewBox="0 0 1000 623"><g transform="matrix(1,0,0,1,-0.6060606060606233,0.2522267206477409)"><svg viewBox="0 0 396 247" data-background-color="#ffffff" preserveAspectRatio="xMidYMid meet" height="623" width="1000" xmlns="http://www.w3.org/2000/svg" xmlns:xlink="http://www.w3.org/1999/xlink"><g id="tight-bounds" transform="matrix(1,0,0,1,0.2400000000000091,-0.09999999999999432)"><svg viewBox="0 0 395.52 247.2" height="247.2" width="395.52"><g><svg></svg></g><g><svg viewBox="0 0 395.52 247.2" height="247.2" width="395.52"><mask id="a693d7f1-b311-4d51-9cbd-888baddd648a"><rect width="640" height="400" fill="white"></rect><g transform="matrix(1,0,0,1,119.75016393442624,37.08)"><svg viewBox="0 0 156.0196721311475 173.04" height="173.04" width="156.0196721311475"><g><svg viewBox="0 0 156.0196721311475 173.04" height="173.04" width="156.0196721311475"><g><svg viewBox="0 0 156.0196721311475 173.04" height="173.04" width="156.0196721311475"><g><svg viewBox="0 0 156.0196721311475 173.04" height="173.04" width="156.0196721311475"><g id="SvgjsG1590"><svg viewBox="0 0 156.0196721311475 173.04" height="173.04" width="156.0196721311475" id="SvgjsSvg1589"><g><svg viewBox="0 0 156.0196721311475 173.04" height="173.04" width="156.0196721311475"><g transform="matrix(1,0,0,1,0,0)"><svg width="156.0196721311475" viewBox="-4.4000000059604645 -40.29999923706055 45 49.79999923706055" height="173.04" data-palette-color="#434bb2"><path d="M27.9-8.8L27.9-8.8Q28.25-8.8 28.25-8.45 28.25-8.1 27.7-7.85L27.7-7.85Q24.3-6.15 19.7-6L19.7-6Q17.3-1.4 17.25-1.28 17.2-1.15 17.03-0.78 16.85-0.4 16.7-0.2L16.7-0.2Q16.4 0.3 16.05 0.3L16.05 0.3Q15.15 0.3 15.15-0.95L15.15-0.95Q15.15-3.6 14.5-6.35L14.5-6.35Q11.75-6.75 9.45-7.6L9.45-7.6 2.7 4.45 1.65 5.2Q1.05 5.5 0.7 5.5L0.7 5.5Q0.25 5.5 0.25 5L0.25 5Q0.25 4.7 0.45 4.3L0.45 4.3 7.65-8.35Q4-10 1.8-12.58-0.4-15.15-0.4-18.3L-0.4-18.3Q-0.4-22.45 2.6-22.45L2.6-22.45Q4.55-22.45 7.08-20.55 9.6-18.65 11.75-15.5L11.75-15.5 21.5-32.7Q22.05-33.5 23.45-33.5L23.45-33.5Q23.8-33.5 23.8-33.27 23.8-33.05 12.85-13.6L12.85-13.6Q14.6-10.45 15.4-7.05L15.4-7.05Q16.85-6.85 18.8-6.85L18.8-6.85Q24.45-17.85 34.15-35.2L34.15-35.2Q34.7-36.2 36.2-36.3L36.2-36.3Q36.6-36.3 36.6-36.02 36.6-35.75 36.25-35.15 35.9-34.55 33.2-29.8L33.2-29.8Q23.4-12.75 20.2-6.85L20.2-6.85Q24.4-7.1 27.9-8.8ZM8.15-9.2L8.15-9.2 11-14.2Q9.1-17.05 6.85-18.8 4.6-20.55 3.05-20.55L3.05-20.55Q1.35-20.55 1.35-18.5L1.35-18.5Q1.35-15.55 3.18-13.15 5-10.75 8.15-9.2ZM9.95-8.45L9.95-8.45Q11.95-7.65 14.25-7.25L14.25-7.25Q13.4-10 12.15-12.35L12.15-12.35Q10-8.55 9.95-8.45ZM15.55-6.2L15.55-6.2Q16-4 16-1.8L16-1.8 16.05-1.25Q16.4-2.05 18.35-6L18.35-6Q17.45-6 15.55-6.2Z" opacity="1" transform="matrix(1,0,0,1,0,0)" fill="black" class="wordmark-text-0" id="SvgjsPath1588" stroke-width="7" stroke="black" stroke-linejoin="round"></path></svg></g></svg></g></svg></g></svg></g><g></g></svg></g></svg></g></svg></g></mask><g transform="matrix(1,0,0,1,119.75016393442624,37.08)"><svg viewBox="0 0 156.0196721311475 173.04" height="173.04" width="156.0196721311475"><g><svg viewBox="0 0 156.0196721311475 173.04" height="173.04" width="156.0196721311475"><g><svg viewBox="0 0 156.0196721311475 173.04" height="173.04" width="156.0196721311475"><g><svg viewBox="0 0 156.0196721311475 173.04" height="173.04" width="156.0196721311475"><g id="textblocktransform"><svg viewBox="0 0 156.0196721311475 173.04" height="173.04" width="156.0196721311475" id="textblock"><g><svg viewBox="0 0 156.0196721311475 173.04" height="173.04" width="156.0196721311475"><g transform="matrix(1,0,0,1,0,0)"><svg width="156.0196721311475" viewBox="-4.4000000059604645 -40.29999923706055 45 49.79999923706055" height="173.04" data-palette-color="#434bb2"><path d="M27.9-8.8L27.9-8.8Q28.25-8.8 28.25-8.45 28.25-8.1 27.7-7.85L27.7-7.85Q24.3-6.15 19.7-6L19.7-6Q17.3-1.4 17.25-1.28 17.2-1.15 17.03-0.78 16.85-0.4 16.7-0.2L16.7-0.2Q16.4 0.3 16.05 0.3L16.05 0.3Q15.15 0.3 15.15-0.95L15.15-0.95Q15.15-3.6 14.5-6.35L14.5-6.35Q11.75-6.75 9.45-7.6L9.45-7.6 2.7 4.45 1.65 5.2Q1.05 5.5 0.7 5.5L0.7 5.5Q0.25 5.5 0.25 5L0.25 5Q0.25 4.7 0.45 4.3L0.45 4.3 7.65-8.35Q4-10 1.8-12.58-0.4-15.15-0.4-18.3L-0.4-18.3Q-0.4-22.45 2.6-22.45L2.6-22.45Q4.55-22.45 7.08-20.55 9.6-18.65 11.75-15.5L11.75-15.5 21.5-32.7Q22.05-33.5 23.45-33.5L23.45-33.5Q23.8-33.5 23.8-33.27 23.8-33.05 12.85-13.6L12.85-13.6Q14.6-10.45 15.4-7.05L15.4-7.05Q16.85-6.85 18.8-6.85L18.8-6.85Q24.45-17.85 34.15-35.2L34.15-35.2Q34.7-36.2 36.2-36.3L36.2-36.3Q36.6-36.3 36.6-36.02 36.6-35.75 36.25-35.15 35.9-34.55 33.2-29.8L33.2-29.8Q23.4-12.75 20.2-6.85L20.2-6.85Q24.4-7.1 27.9-8.8ZM8.15-9.2L8.15-9.2 11-14.2Q9.1-17.05 6.85-18.8 4.6-20.55 3.05-20.55L3.05-20.55Q1.35-20.55 1.35-18.5L1.35-18.5Q1.35-15.55 3.18-13.15 5-10.75 8.15-9.2ZM9.95-8.45L9.95-8.45Q11.95-7.65 14.25-7.25L14.25-7.25Q13.4-10 12.15-12.35L12.15-12.35Q10-8.55 9.95-8.45ZM15.55-6.2L15.55-6.2Q16-4 16-1.8L16-1.8 16.05-1.25Q16.4-2.05 18.35-6L18.35-6Q17.45-6 15.55-6.2Z" opacity="1" transform="matrix(1,0,0,1,0,0)" fill="#434bb2" class="wordmark-text-0" data-fill-palette-color="primary" id="text-0"></path></svg></g></svg></g></svg></g></svg></g><g></g></svg></g></svg></g></svg></g><g mask="url(#a693d7f1-b311-4d51-9cbd-888baddd648a)"><g transform="matrix(2.495420065445384, 0, 0, 2.495420065445384, 101.93473288580847, 0.9999999999999858)"><svg xmlns="http://www.w3.org/2000/svg" xmlns:xlink="http://www.w3.org/1999/xlink" version="1.1" x="0" y="0" viewBox="2.4290857315063477 1.100000023841858 76.80091094970703 98.260009765625" enable-background="new 0 0 100 100" xml:space="preserve" height="98.260009765625" width="76.80091094970703" class="icon-none" data-fill-palette-color="accent" id="none"><path d="M72.708 68.18c0-0.414-0.336-0.75-0.75-0.75s-0.75 0.336-0.75 0.75v20.66H18.13V8.52c0.06-0.4 0.02-0.8-0.14-1.19-0.41-0.97-1.41-1.58-2.21-1.82-1.61-0.48-3.24-0.34-4.82-0.19L9.37 5.45l-0.01 4.64c-1.01-0.07-1.95-0.25-2.79-0.54C5.6 9.22 4.81 8.64 4.34 7.91 4.11 7.57 3.98 7.2 3.95 6.84V6.4 6.36C4 5.99 4.15 5.64 4.39 5.33c0.7-0.9 1.85-1.43 2.7-1.72 2.62-0.89 5.53-1.01 8.03-1.01h56.088v32.796c0 0.414 0.336 0.75 0.75 0.75s0.75-0.336 0.75-0.75V1.86c0-0.003 0.002-0.006 0.002-0.01 0-0.189-0.078-0.36-0.197-0.493-0.054-0.06-0.118-0.107-0.188-0.147-0.11-0.064-0.23-0.11-0.365-0.11H15.12c-2.63 0-5.69 0.13-8.51 1.09C5.09 2.7 3.95 3.45 3.2 4.41 2.61 5.17 2.35 6.08 2.45 6.98V94c-0.09 0.83 0.12 1.7 0.63 2.48 0.66 1 1.72 1.79 3 2.23 1.27 0.44 2.7 0.65 4.28 0.65 1.39 0 2.89-0.17 4.5-0.51 0.52-0.11 1.08-0.24 1.6-0.5 0.63-0.31 1.12-0.77 1.41-1.31 0.01-0.03 0.03-0.05 0.03-0.08 0.14-0.14 0.23-0.33 0.23-0.54v-6.08h53.814c0.005 0 0.009 0.003 0.014 0.003 0.207 0 0.395-0.084 0.531-0.22 0.136-0.135 0.221-0.323 0.221-0.533 0-0.003-0.002-0.006-0.002-0.01V68.18zM16.63 88.84v1.5 5.88c-0.04 0.04-0.07 0.08-0.09 0.12-0.14 0.26-0.4 0.49-0.75 0.67-0.35 0.17-0.75 0.27-1.24 0.38-3.12 0.66-5.88 0.62-7.98-0.1-0.97-0.33-1.76-0.91-2.23-1.63-0.23-0.35-0.36-0.72-0.39-1.08-0.02-0.15-0.02-0.3 0-0.44v-2.76V9.73c0.59 0.53 1.32 0.96 2.13 1.24 1.27 0.43 2.7 0.65 4.28 0.65 1.39 0 2.89-0.17 4.5-0.51 0.52-0.11 1.08-0.25 1.6-0.5 0.06-0.03 0.12-0.06 0.17-0.1V88.84zM16.63 8.34v0.05c-0.02 0.07-0.05 0.13-0.09 0.21-0.14 0.25-0.4 0.49-0.75 0.66-0.35 0.18-0.75 0.28-1.24 0.38-1.31 0.28-2.54 0.44-3.69 0.47l0.01-3.28 0.23-0.02c1.43-0.13 2.91-0.26 4.24 0.14 0.59 0.17 1.1 0.56 1.26 0.95 0.04 0.08 0.06 0.18 0.06 0.26C16.64 8.21 16.63 8.28 16.63 8.34z" fill="#f05d1d" data-fill-palette-color="accent"></path><g fill="#f05d1d" data-fill-palette-color="accent"><path d="M71.99 38.19h-18.6c-4 0-7.24 3.24-7.24 7.24v12.89c0 4 3.24 7.24 7.24 7.24h18.6c4 0 7.24-3.24 7.24-7.24V45.43C79.23 41.43 75.99 38.19 71.99 38.19zM70.65 61.96h-4.67v-8.37h-6.33v8.37h-4.66V41.68h4.66v7.9h6.33v-7.9h4.67V61.96z" fill="#f05d1d" data-fill-palette-color="accent"></path></g></svg></g></g></svg></g><defs></defs></svg><rect width="395.52" height="247.2" fill="none" stroke="none" visibility="hidden"></rect></g></svg></g></svg>